<?xml version="1.0" encoding="utf-8"?>
<!-- Generator: Adobe Illustrator 16.1.1, SVG Export Plug-In . SVG Version: 6.00 Build 0)  -->
<!DOCTYPE svg PUBLIC "-//W3C//DTD SVG 1.1//EN" "http://www.w3.org/Graphics/SVG/1.1/DTD/svg11.dtd">
<svg version="1.1" id="Layer_1" xmlns="http://www.w3.org/2000/svg" xmlns:xlink="http://www.w3.org/1999/xlink" x="0px" y="0px"
	 width="300px" height="300px" viewBox="0 0 300 300" enable-background="new 0 0 300 300" xml:space="preserve">
<g>
	<path fill="#0F80F0" d="M250.205,36.868H49.797c-7.108,0-12.93,5.821-12.93,12.931v200.407c0,7.107,5.821,12.928,12.93,12.928
		h200.408c7.105,0,12.928-5.82,12.928-12.928V49.798C263.133,42.689,257.311,36.868,250.205,36.868z M228.914,163.789h-31.086
		v83.184h-31.666v-83.184h-21.996v-29.951h21.996c0,0,0-12.272,0-25.58c0-20.102,12.99-38.562,42.928-38.562
		c12.123,0,21.086,1.161,21.086,1.161l-0.707,27.968c0,0-9.141-0.089-19.113-0.089c-10.797,0-12.527,4.976-12.527,13.233
		c0,1.019,0,1.382,0,1.402c0,2.314,0,7.937,0,20.466h32.502L228.914,163.789z"/>
</g>
</svg>
