
<svg xmlns="http://www.w3.org/2000/svg" version="1.1" xmlns:xlink="http://www.w3.org/1999/xlink" preserveAspectRatio="none" x="0px" y="0px" width="50px" height="50px" viewBox="0 0 50 50">
<defs>
<g id="Layer1_0_FILL">
<path fill="#599DCF" stroke="none" d="
M 27.25 8.15
Q 23.4 8.15 21.7 10 20 11.8 20 15.4
L 20 18.7 16.7 18.7 16.7 24.25 20 24.25 20 40.35 26.7 40.35 26.7 24.25 31.1 24.25 31.7 18.7 26.7 18.7 26.7 15.95
Q 26.7 15.3 26.75 14.95 26.8 14.6 27 14.3 27.2 13.95 27.65 13.85 28.15 13.7 28.9 13.7
L 31.65 13.7 31.65 8.15 27.25 8.15 Z"/>
</g>

<path id="Layer0_0_1_STROKES" stroke="#599DCF" stroke-width="1" stroke-linejoin="round" stroke-linecap="round" fill="none" d="
M 0.85 0.85
L 49.2 0.85 49.2 49.2 0.85 49.2 0.85 0.85 Z"/>
</defs>

<g transform="matrix( 1, 0, 0, 1, 0.8,0.75) ">
<use xlink:href="#Layer1_0_FILL"/>
</g>

<g transform="matrix( 1, 0, 0, 1, 0,0) ">
<use xlink:href="#Layer0_0_1_STROKES"/>
</g>
</svg>
